# xmcd
#
# Track frame offsets: 
#        150
#        28808
#        52660
#        71914
#        107539
#        131230
#
# Disc length: 2003 seconds
#
# Revision: 2
# Processed by: cddbd v1.5.2PL0 Copyright (c) Steve Scherf et al.
# Submitted via: ExactAudioCopyFreeDBPlugin 1.0
#
DISCID=5007d106
DTITLE=The Isley Brothers - Winner Takes All
DYEAR=1979
DGENRE=Rhythm and Blues
TTITLE0=I Wanna Be with You (Parts 1 and 2)
TTITLE1=Liquid Love (Parts 1 and 2)
TTITLE2=Winner Takes All
TTITLE3=Life in the City (Parts 1 and 2)
TTITLE4=It's a Disco Night (Rock Don't Stop) (Parts 1 and 2)
TTITLE5=(Can't You See) What You Do to Me
EXTD=
EXTT0=
EXTT1=
EXTT2=
EXTT3=
EXTT4=
EXTT5=
PLAYORDER=
